<svg height='30px' width='30px' fill="#36383b" xmlns="http://www.w3.org/2000/svg" version="1.1" x="0px" y="0px"
     viewBox="0 0 100 100" enable-background="new 0 0 100 100" xml:space="preserve">
    <path d="M5,67.9C5,58.1,9.5,50,15.1,41.3l18.2-28.5l7.5,3.6L29,52.5l9.2,2c2.5,2.5,5.6,6.4,5.6,13.1c0,11.7-8.9,19.6-19.6,19.6  C13.7,87.2,5,79.4,5,67.9z M56.4,67.9c0-9.8,4.5-17.9,10.1-26.5l17.9-28.5l7.8,3.6l-12,36.1l9.5,2C92.2,57,95,60.9,95,67.6  c0,11.7-8.7,19.6-19.3,19.6C65.1,87.2,56.4,79.4,56.4,67.9z"></path>
</svg>