<svg height='30px' width='30px'  fill="#36383b" xmlns="http://www.w3.org/2000/svg" xmlns:xlink="http://www.w3.org/1999/xlink" version="1.1" x="0px" y="0px" viewBox="0 0 100 100" enable-background="new 0 0 100 100" xml:space="preserve"><path d="M7.8,83.5l12-36.1l-9.2-2C8.1,43,5,39.1,5,32.4c0-11.7,8.7-19.6,19.3-19.6c10.6,0,19.6,7.8,19.6,19.3  c0,9.8-4.5,17.9-10.1,26.6L15.6,87.2L7.8,83.5z M59.2,83.5l12-36.1l-9.5-2c-2.5-2.5-5.3-6.4-5.3-13.1c0-11.7,8.7-19.6,19.3-19.6  c10.6,0,19.3,7.8,19.3,19.3c0,9.8-4.2,17.9-10.1,26.6L67.1,87.2L59.2,83.5z"></path></svg>